
<svg enable-background="new 0 0 464.3 562.2" viewBox="0 0 464.3 562.2" xmlns="http://www.w3.org/2000/svg"><path clip-rule="evenodd" d="m287.9 547.2c-45.9 0-85-11.1-116.3-32.9-34.2-23.9-59.6-61.1-75.4-110.5-16.3-50.9-51-98.4-65.8-118.7-1.7-2.4-3.2-4.4-4.3-5.9-5.6-7.8-5.6-18.3 0-26.1l.5-.7.5-.6c9.9-10.8 23.9-17.1 38.6-17.1 1 0 2.1 0 3.1.1 33 .4 63 35.6 89 75.9v-254c0-.4 0-.8 0-1.2.4-22.5 18.7-40.5 41.2-40.5h.7c22.7.4 40.7 19 40.4 41.7v129.5c7.8-9.8 19.6-15.4 32.1-15.5h.6c22.7.3 40.8 18.9 40.6 41.6v5.1c7.8-9.8 19.6-15.5 32-15.5h.8c22.6.5 40.7 19.1 40.4 41.8v2.2c13.2-14.8 35.9-16.2 50.7-3 7.7 6.8 12.1 16.6 12.1 26.9v116c-.1 89-72.5 161.4-161.5 161.4z" fill="#fff" fill-rule="evenodd" opacity=".9"/><path d="m199 30h.4c14.4.2 25.9 12.1 25.7 26.6v214.2c0 5.8 4.7 10.5 10.4 10.5 5.8 0 10.4-4.7 10.5-10.5v-58.5c0-.2 0-.5 0-.7.2-14.3 11.8-25.8 26.1-25.8h.4c14.4.2 26 12.1 25.8 26.5v58.5c0 5.8 4.7 10.5 10.4 10.5 5.8 0 10.4-4.7 10.5-10.5v-17.1c0-.3 0-10.7 0-11 .3-14.2 11.9-25.6 26.1-25.6h.5c14.4.3 25.9 12.2 25.6 26.6v37.6c0 5.8 4.7 10.5 10.5 10.5s10.5-4.7 10.5-10.5v-11.4c0-11.6 9.4-20.9 20.9-20.9 11.6 0 20.9 9.4 20.9 20.9v116c0 80.9-65.5 146.4-146.4 146.5-81.6 0-146.5-36.3-177.4-133-18.8-59.4-61.4-113.9-72-128.8-1.8-2.6-1.8-6.1 0-8.6 7-7.8 16.9-12.2 27.3-12.2.8 0 1.7 0 2.6.1 32.4 0 66.9 51.1 91.8 93 1.2 2.1 3.5 3.4 5.9 3.4 3.8 0 6.9-3.1 6.9-6.9v-283.7c.2-14.3 11.8-25.7 26.1-25.7m0-30c-30.6 0-55.6 24.6-56.1 55.2v1.6 207.9c-1.1-1.3-2.2-2.6-3.3-3.9-23.8-27.2-46.8-40.6-70.2-41-1.2-.1-2.4-.1-3.6-.1-18.9 0-37 8.1-49.6 22.1l-1.1 1.2-1 1.3c-9.4 13-9.4 30.6 0 43.6 1.2 1.7 2.7 3.7 4.4 6 14.3 19.7 48 65.8 63.6 114.4 16.7 52.6 44 92.4 81 118.2 33.9 23.6 75.9 35.6 124.9 35.6 97.4.1 176.4-78.8 176.4-176.2 0-.1 0-.2 0-.3v-116c0-28.1-22.8-50.9-51-50.9-5.5 0-10.9.9-16.1 2.6-8.6-20.5-28.5-34.1-50.7-34.5h-1.1c-7.2 0-14.3 1.4-21 4.1-8.5-21-28.7-35-51.4-35.3h-.8c-5.8 0-11.5.9-17.1 2.6v-101.4c.4-30.9-24.3-56.3-55.2-56.8z" fill="#11113f" opacity=".6"/><g fill="#ff2d55"><path d="m67.8 63.4c35.2 0 88 32.2 88 32.2s-52.8 32.2-88 32.2c-17.6 0-30.8-8.1-30.8-32.2s13.2-32.2 30.8-32.2m0-37c-23.7 0-38.7 9.1-47 16.8-9.5 8.7-20.8 24.9-20.8 52.5s11.3 43.8 20.8 52.5c8.4 7.7 23.3 16.8 47 16.8 19.9 0 44.4-6.6 72.6-19.5 11.9-5.4 23.4-11.5 34.6-18.2l51.7-31.6-51.7-31.6c-11.2-6.7-22.8-12.8-34.7-18.2-28.1-12.9-52.6-19.5-72.5-19.5z"/><path d="m332 63.4c17.6 0 30.8 8.1 30.8 32.2s-13.2 32.2-30.8 32.2c-35.2 0-88-32.2-88-32.2s52.8-32.2 88-32.2m0-37c-20 0-44.4 6.6-72.6 19.5-11.9 5.4-23.4 11.5-34.7 18.2l-51.7 31.6 51.7 31.6c11.2 6.7 22.8 12.8 34.7 18.2 28.2 12.9 52.6 19.5 72.6 19.5 23.7 0 38.6-9.1 47-16.8 9.5-8.7 20.8-24.8 20.8-52.5s-11.4-43.8-20.8-52.5c-8.4-7.6-23.3-16.8-47-16.8z"/></g></svg>